<svg width="520" height="200" viewBox="0 0 520 200" fill="none" xmlns="http://www.w3.org/2000/svg">
<rect width="520" height="200" fill="#B3ECFF"/>
<path d="M148.586 111.08C148.586 115.944 146.762 119.752 143.114 122.504C139.466 125.256 134.09 126.632 126.986 126.632C124.298 126.632 121.802 126.44 119.498 126.056C117.194 125.672 115.21 125.096 113.546 124.328C111.946 123.496 110.666 122.472 109.706 121.256C108.81 120.04 108.362 118.6 108.362 116.936C108.362 115.4 108.682 114.12 109.322 113.096C109.962 112.008 110.73 111.112 111.626 110.408C113.482 111.432 115.594 112.36 117.962 113.192C120.394 113.96 123.178 114.344 126.314 114.344C128.298 114.344 129.802 114.056 130.826 113.48C131.914 112.904 132.458 112.136 132.458 111.176C132.458 110.28 132.074 109.576 131.306 109.064C130.538 108.552 129.258 108.136 127.466 107.816L124.586 107.24C119.018 106.152 114.858 104.456 112.106 102.152C109.418 99.784 108.074 96.424 108.074 92.072C108.074 89.704 108.586 87.56 109.61 85.64C110.634 83.72 112.074 82.12 113.93 80.84C115.786 79.56 117.994 78.568 120.554 77.864C123.178 77.16 126.058 76.808 129.194 76.808C131.562 76.808 133.77 77 135.818 77.384C137.93 77.704 139.754 78.216 141.29 78.92C142.826 79.624 144.042 80.552 144.938 81.704C145.834 82.792 146.282 84.104 146.282 85.64C146.282 87.112 145.994 88.392 145.418 89.48C144.906 90.504 144.234 91.368 143.402 92.072C142.89 91.752 142.122 91.432 141.098 91.112C140.074 90.728 138.954 90.408 137.738 90.152C136.522 89.832 135.274 89.576 133.994 89.384C132.778 89.192 131.658 89.096 130.634 89.096C128.522 89.096 126.89 89.352 125.738 89.864C124.586 90.312 124.01 91.048 124.01 92.072C124.01 92.776 124.33 93.352 124.97 93.8C125.61 94.248 126.826 94.664 128.618 95.048L131.594 95.72C137.738 97.128 142.09 99.08 144.65 101.576C147.274 104.008 148.586 107.176 148.586 111.08ZM183.249 89.768C181.649 89.768 180.113 90.024 178.641 90.536C177.233 91.048 175.985 91.816 174.897 92.84C173.873 93.8 173.041 95.016 172.401 96.488C171.761 97.96 171.441 99.688 171.441 101.672C171.441 105.64 172.561 108.616 174.801 110.6C177.105 112.584 179.889 113.576 183.153 113.576C185.073 113.576 186.737 113.352 188.145 112.904C189.553 112.456 190.801 111.976 191.889 111.464C193.169 112.36 194.129 113.352 194.769 114.44C195.409 115.464 195.729 116.712 195.729 118.184C195.729 120.808 194.481 122.856 191.985 124.328C189.489 125.736 186.033 126.44 181.617 126.44C177.585 126.44 173.937 125.864 170.673 124.712C167.409 123.496 164.593 121.832 162.225 119.72C159.921 117.544 158.129 114.952 156.849 111.944C155.569 108.936 154.929 105.608 154.929 101.96C154.929 97.736 155.601 94.056 156.945 90.92C158.353 87.72 160.241 85.096 162.609 83.048C164.977 81 167.697 79.464 170.769 78.44C173.905 77.416 177.201 76.904 180.657 76.904C185.265 76.904 188.817 77.736 191.313 79.4C193.809 81.064 195.057 83.208 195.057 85.832C195.057 87.048 194.769 88.2 194.193 89.288C193.617 90.312 192.945 91.208 192.177 91.976C191.089 91.464 189.777 90.984 188.241 90.536C186.705 90.024 185.041 89.768 183.249 89.768ZM220.234 124.904C219.594 125.096 218.57 125.288 217.162 125.48C215.818 125.672 214.41 125.768 212.938 125.768C211.53 125.768 210.25 125.672 209.098 125.48C208.01 125.288 207.082 124.904 206.314 124.328C205.546 123.752 204.938 122.984 204.49 122.024C204.106 121 203.914 119.688 203.914 118.088V89.288C203.914 87.816 204.17 86.568 204.682 85.544C205.258 84.456 206.058 83.496 207.082 82.664C208.106 81.832 209.354 81.096 210.826 80.456C212.362 79.752 213.994 79.144 215.722 78.632C217.45 78.12 219.242 77.736 221.098 77.48C222.954 77.16 224.81 77 226.666 77C229.738 77 232.17 77.608 233.962 78.824C235.754 79.976 236.65 81.896 236.65 84.584C236.65 85.48 236.522 86.376 236.266 87.272C236.01 88.104 235.69 88.872 235.306 89.576C233.962 89.576 232.586 89.64 231.178 89.768C229.77 89.896 228.394 90.088 227.05 90.344C225.706 90.6 224.426 90.888 223.21 91.208C222.058 91.464 221.066 91.784 220.234 92.168V124.904ZM242.999 65.384C242.999 62.952 243.799 60.904 245.399 59.24C247.063 57.576 249.239 56.744 251.927 56.744C254.615 56.744 256.759 57.576 258.359 59.24C260.023 60.904 260.855 62.952 260.855 65.384C260.855 67.816 260.023 69.864 258.359 71.528C256.759 73.192 254.615 74.024 251.927 74.024C249.239 74.024 247.063 73.192 245.399 71.528C243.799 69.864 242.999 67.816 242.999 65.384ZM260.087 124.904C259.383 125.032 258.327 125.192 256.919 125.384C255.575 125.64 254.199 125.768 252.791 125.768C251.383 125.768 250.103 125.672 248.951 125.48C247.863 125.288 246.935 124.904 246.167 124.328C245.399 123.752 244.791 122.984 244.343 122.024C243.959 121 243.767 119.688 243.767 118.088V79.016C244.471 78.888 245.495 78.728 246.839 78.536C248.247 78.28 249.655 78.152 251.063 78.152C252.471 78.152 253.719 78.248 254.807 78.44C255.959 78.632 256.919 79.016 257.687 79.592C258.455 80.168 259.031 80.968 259.415 81.992C259.863 82.952 260.087 84.232 260.087 85.832V124.904ZM291.884 76.904C295.724 76.904 299.276 77.416 302.54 78.44C305.868 79.4 308.716 80.904 311.084 82.952C313.452 85 315.308 87.592 316.652 90.728C317.996 93.8 318.668 97.48 318.668 101.768C318.668 105.864 318.092 109.448 316.94 112.52C315.788 115.592 314.156 118.184 312.044 120.296C309.932 122.344 307.372 123.88 304.364 124.904C301.42 125.928 298.124 126.44 294.476 126.44C291.724 126.44 289.164 126.024 286.796 125.192V141.128C286.156 141.32 285.132 141.512 283.724 141.704C282.316 141.96 280.876 142.088 279.404 142.088C277.996 142.088 276.716 141.992 275.564 141.8C274.476 141.608 273.548 141.224 272.78 140.648C272.012 140.072 271.436 139.272 271.052 138.248C270.668 137.288 270.476 136.008 270.476 134.408V88.328C270.476 86.6 270.828 85.192 271.532 84.104C272.3 83.016 273.324 82.024 274.604 81.128C276.588 79.848 279.052 78.824 281.996 78.056C284.94 77.288 288.236 76.904 291.884 76.904ZM292.076 113.576C298.668 113.576 301.964 109.64 301.964 101.768C301.964 97.672 301.132 94.632 299.468 92.648C297.868 90.664 295.532 89.672 292.46 89.672C291.244 89.672 290.156 89.832 289.196 90.152C288.236 90.408 287.404 90.728 286.7 91.112V112.232C287.468 112.616 288.3 112.936 289.196 113.192C290.092 113.448 291.052 113.576 292.076 113.576ZM342.953 108.968C342.953 110.632 343.465 111.816 344.489 112.52C345.577 113.224 347.081 113.576 349.001 113.576C349.961 113.576 350.953 113.512 351.977 113.384C353.001 113.192 353.897 112.968 354.665 112.712C355.241 113.416 355.721 114.216 356.105 115.112C356.553 115.944 356.777 116.968 356.777 118.184C356.777 120.616 355.849 122.6 353.993 124.136C352.201 125.672 349.001 126.44 344.393 126.44C338.761 126.44 334.409 125.16 331.337 122.6C328.329 120.04 326.825 115.88 326.825 110.12V69.032C327.529 68.84 328.521 68.648 329.801 68.456C331.145 68.2 332.553 68.072 334.025 68.072C336.841 68.072 339.017 68.584 340.553 69.608C342.153 70.568 342.953 72.648 342.953 75.848V81.992H355.529C355.913 82.696 356.265 83.592 356.585 84.68C356.969 85.704 357.161 86.856 357.161 88.136C357.161 90.376 356.649 92.008 355.625 93.032C354.665 93.992 353.353 94.472 351.689 94.472H342.953V108.968ZM412.796 101.672C412.796 105.64 412.188 109.192 410.972 112.328C409.756 115.4 408.028 117.992 405.788 120.104C403.612 122.216 400.988 123.816 397.916 124.904C394.844 125.992 391.42 126.536 387.644 126.536C383.868 126.536 380.444 125.96 377.372 124.808C374.3 123.656 371.644 122.024 369.404 119.912C367.228 117.736 365.532 115.112 364.316 112.04C363.1 108.968 362.492 105.512 362.492 101.672C362.492 97.896 363.1 94.472 364.316 91.4C365.532 88.328 367.228 85.736 369.404 83.624C371.644 81.448 374.3 79.784 377.372 78.632C380.444 77.48 383.868 76.904 387.644 76.904C391.42 76.904 394.844 77.512 397.916 78.728C400.988 79.88 403.612 81.544 405.788 83.72C408.028 85.832 409.756 88.424 410.972 91.496C412.188 94.568 412.796 97.96 412.796 101.672ZM379.196 101.672C379.196 105.576 379.932 108.584 381.404 110.696C382.94 112.744 385.052 113.768 387.74 113.768C390.428 113.768 392.476 112.712 393.884 110.6C395.356 108.488 396.092 105.512 396.092 101.672C396.092 97.832 395.356 94.888 393.884 92.84C392.412 90.728 390.332 89.672 387.644 89.672C384.956 89.672 382.876 90.728 381.404 92.84C379.932 94.888 379.196 97.832 379.196 101.672Z" fill="#0186B3"/>
<path d="M148.586 111.08C148.586 115.944 146.762 119.752 143.114 122.504C139.466 125.256 134.09 126.632 126.986 126.632C124.298 126.632 121.802 126.44 119.498 126.056C117.194 125.672 115.21 125.096 113.546 124.328C111.946 123.496 110.666 122.472 109.706 121.256C108.81 120.04 108.362 118.6 108.362 116.936C108.362 115.4 108.682 114.12 109.322 113.096C109.962 112.008 110.73 111.112 111.626 110.408C113.482 111.432 115.594 112.36 117.962 113.192C120.394 113.96 123.178 114.344 126.314 114.344C128.298 114.344 129.802 114.056 130.826 113.48C131.914 112.904 132.458 112.136 132.458 111.176C132.458 110.28 132.074 109.576 131.306 109.064C130.538 108.552 129.258 108.136 127.466 107.816L124.586 107.24C119.018 106.152 114.858 104.456 112.106 102.152C109.418 99.784 108.074 96.424 108.074 92.072C108.074 89.704 108.586 87.56 109.61 85.64C110.634 83.72 112.074 82.12 113.93 80.84C115.786 79.56 117.994 78.568 120.554 77.864C123.178 77.16 126.058 76.808 129.194 76.808C131.562 76.808 133.77 77 135.818 77.384C137.93 77.704 139.754 78.216 141.29 78.92C142.826 79.624 144.042 80.552 144.938 81.704C145.834 82.792 146.282 84.104 146.282 85.64C146.282 87.112 145.994 88.392 145.418 89.48C144.906 90.504 144.234 91.368 143.402 92.072C142.89 91.752 142.122 91.432 141.098 91.112C140.074 90.728 138.954 90.408 137.738 90.152C136.522 89.832 135.274 89.576 133.994 89.384C132.778 89.192 131.658 89.096 130.634 89.096C128.522 89.096 126.89 89.352 125.738 89.864C124.586 90.312 124.01 91.048 124.01 92.072C124.01 92.776 124.33 93.352 124.97 93.8C125.61 94.248 126.826 94.664 128.618 95.048L131.594 95.72C137.738 97.128 142.09 99.08 144.65 101.576C147.274 104.008 148.586 107.176 148.586 111.08Z" fill="#0186B3"/>
<path d="M183.249 89.768C181.649 89.768 180.113 90.024 178.641 90.536C177.233 91.048 175.985 91.816 174.897 92.84C173.873 93.8 173.041 95.016 172.401 96.488C171.761 97.96 171.441 99.688 171.441 101.672C171.441 105.64 172.561 108.616 174.801 110.6C177.105 112.584 179.889 113.576 183.153 113.576C185.073 113.576 186.737 113.352 188.145 112.904C189.553 112.456 190.801 111.976 191.889 111.464C193.169 112.36 194.129 113.352 194.769 114.44C195.409 115.464 195.729 116.712 195.729 118.184C195.729 120.808 194.481 122.856 191.985 124.328C189.489 125.736 186.033 126.44 181.617 126.44C177.585 126.44 173.937 125.864 170.673 124.712C167.409 123.496 164.593 121.832 162.225 119.72C159.921 117.544 158.129 114.952 156.849 111.944C155.569 108.936 154.929 105.608 154.929 101.96C154.929 97.736 155.601 94.056 156.945 90.92C158.353 87.72 160.241 85.096 162.609 83.048C164.977 81 167.697 79.464 170.769 78.44C173.905 77.416 177.201 76.904 180.657 76.904C185.265 76.904 188.817 77.736 191.313 79.4C193.809 81.064 195.057 83.208 195.057 85.832C195.057 87.048 194.769 88.2 194.193 89.288C193.617 90.312 192.945 91.208 192.177 91.976C191.089 91.464 189.777 90.984 188.241 90.536C186.705 90.024 185.041 89.768 183.249 89.768Z" fill="#0186B3"/>
<path d="M220.234 124.904C219.594 125.096 218.57 125.288 217.162 125.48C215.818 125.672 214.41 125.768 212.938 125.768C211.53 125.768 210.25 125.672 209.098 125.48C208.01 125.288 207.082 124.904 206.314 124.328C205.546 123.752 204.938 122.984 204.49 122.024C204.106 121 203.914 119.688 203.914 118.088V89.288C203.914 87.816 204.17 86.568 204.682 85.544C205.258 84.456 206.058 83.496 207.082 82.664C208.106 81.832 209.354 81.096 210.826 80.456C212.362 79.752 213.994 79.144 215.722 78.632C217.45 78.12 219.242 77.736 221.098 77.48C222.954 77.16 224.81 77 226.666 77C229.738 77 232.17 77.608 233.962 78.824C235.754 79.976 236.65 81.896 236.65 84.584C236.65 85.48 236.522 86.376 236.266 87.272C236.01 88.104 235.69 88.872 235.306 89.576C233.962 89.576 232.586 89.64 231.178 89.768C229.77 89.896 228.394 90.088 227.05 90.344C225.706 90.6 224.426 90.888 223.21 91.208C222.058 91.464 221.066 91.784 220.234 92.168V124.904Z" fill="#0186B3"/>
<path d="M242.999 65.384C242.999 62.952 243.799 60.904 245.399 59.24C247.063 57.576 249.239 56.744 251.927 56.744C254.615 56.744 256.759 57.576 258.359 59.24C260.023 60.904 260.855 62.952 260.855 65.384C260.855 67.816 260.023 69.864 258.359 71.528C256.759 73.192 254.615 74.024 251.927 74.024C249.239 74.024 247.063 73.192 245.399 71.528C243.799 69.864 242.999 67.816 242.999 65.384ZM260.087 124.904C259.383 125.032 258.327 125.192 256.919 125.384C255.575 125.64 254.199 125.768 252.791 125.768C251.383 125.768 250.103 125.672 248.951 125.48C247.863 125.288 246.935 124.904 246.167 124.328C245.399 123.752 244.791 122.984 244.343 122.024C243.959 121 243.767 119.688 243.767 118.088V79.016C244.471 78.888 245.495 78.728 246.839 78.536C248.247 78.28 249.655 78.152 251.063 78.152C252.471 78.152 253.719 78.248 254.807 78.44C255.959 78.632 256.919 79.016 257.687 79.592C258.455 80.168 259.031 80.968 259.415 81.992C259.863 82.952 260.087 84.232 260.087 85.832V124.904Z" fill="#0186B3"/>
<path d="M291.884 76.904C295.724 76.904 299.276 77.416 302.54 78.44C305.868 79.4 308.716 80.904 311.084 82.952C313.452 85 315.308 87.592 316.652 90.728C317.996 93.8 318.668 97.48 318.668 101.768C318.668 105.864 318.092 109.448 316.94 112.52C315.788 115.592 314.156 118.184 312.044 120.296C309.932 122.344 307.372 123.88 304.364 124.904C301.42 125.928 298.124 126.44 294.476 126.44C291.724 126.44 289.164 126.024 286.796 125.192V141.128C286.156 141.32 285.132 141.512 283.724 141.704C282.316 141.96 280.876 142.088 279.404 142.088C277.996 142.088 276.716 141.992 275.564 141.8C274.476 141.608 273.548 141.224 272.78 140.648C272.012 140.072 271.436 139.272 271.052 138.248C270.668 137.288 270.476 136.008 270.476 134.408V88.328C270.476 86.6 270.828 85.192 271.532 84.104C272.3 83.016 273.324 82.024 274.604 81.128C276.588 79.848 279.052 78.824 281.996 78.056C284.94 77.288 288.236 76.904 291.884 76.904ZM292.076 113.576C298.668 113.576 301.964 109.64 301.964 101.768C301.964 97.672 301.132 94.632 299.468 92.648C297.868 90.664 295.532 89.672 292.46 89.672C291.244 89.672 290.156 89.832 289.196 90.152C288.236 90.408 287.404 90.728 286.7 91.112V112.232C287.468 112.616 288.3 112.936 289.196 113.192C290.092 113.448 291.052 113.576 292.076 113.576Z" fill="#0186B3"/>
<path d="M342.953 108.968C342.953 110.632 343.465 111.816 344.489 112.52C345.577 113.224 347.081 113.576 349.001 113.576C349.961 113.576 350.953 113.512 351.977 113.384C353.001 113.192 353.897 112.968 354.665 112.712C355.241 113.416 355.721 114.216 356.105 115.112C356.553 115.944 356.777 116.968 356.777 118.184C356.777 120.616 355.849 122.6 353.993 124.136C352.201 125.672 349.001 126.44 344.393 126.44C338.761 126.44 334.409 125.16 331.337 122.6C328.329 120.04 326.825 115.88 326.825 110.12V69.032C327.529 68.84 328.521 68.648 329.801 68.456C331.145 68.2 332.553 68.072 334.025 68.072C336.841 68.072 339.017 68.584 340.553 69.608C342.153 70.568 342.953 72.648 342.953 75.848V81.992H355.529C355.913 82.696 356.265 83.592 356.585 84.68C356.969 85.704 357.161 86.856 357.161 88.136C357.161 90.376 356.649 92.008 355.625 93.032C354.665 93.992 353.353 94.472 351.689 94.472H342.953V108.968Z" fill="#0186B3"/>
<path d="M412.796 101.672C412.796 105.64 412.188 109.192 410.972 112.328C409.756 115.4 408.028 117.992 405.788 120.104C403.612 122.216 400.988 123.816 397.916 124.904C394.844 125.992 391.42 126.536 387.644 126.536C383.868 126.536 380.444 125.96 377.372 124.808C374.3 123.656 371.644 122.024 369.404 119.912C367.228 117.736 365.532 115.112 364.316 112.04C363.1 108.968 362.492 105.512 362.492 101.672C362.492 97.896 363.1 94.472 364.316 91.4C365.532 88.328 367.228 85.736 369.404 83.624C371.644 81.448 374.3 79.784 377.372 78.632C380.444 77.48 383.868 76.904 387.644 76.904C391.42 76.904 394.844 77.512 397.916 78.728C400.988 79.88 403.612 81.544 405.788 83.72C408.028 85.832 409.756 88.424 410.972 91.496C412.188 94.568 412.796 97.96 412.796 101.672ZM379.196 101.672C379.196 105.576 379.932 108.584 381.404 110.696C382.94 112.744 385.052 113.768 387.74 113.768C390.428 113.768 392.476 112.712 393.884 110.6C395.356 108.488 396.092 105.512 396.092 101.672C396.092 97.832 395.356 94.888 393.884 92.84C392.412 90.728 390.332 89.672 387.644 89.672C384.956 89.672 382.876 90.728 381.404 92.84C379.932 94.888 379.196 97.832 379.196 101.672Z" fill="#0186B3"/>
<rect x="0.5" y="0.5" width="519" height="199" stroke="black" stroke-opacity="0.5"/>
</svg>
